<svg version="1.2" xmlns="http://www.w3.org/2000/svg" viewBox="0 0 361 63" width="361" height="63"><style>.a{fill:#e2963b}</style><path fill-rule="evenodd" class="a" d="m44.9 21.4c0.2 0.7 0.5 1.6 0.6 3.4 0.1 1.9 0.1 2.5 0.1 7.4 0 4.8 0 5.4-0.1 7.3-0.1 1.8-0.4 2.8-0.6 3.4-0.3 0.9-0.7 1.5-1.4 2.1-0.6 0.6-1.2 1-2 1.4-0.6 0.2-1.6 0.5-3.3 0.6-1.9 0.1-2.5 0.1-7.3 0.1-4.7 0-5.3 0-7.2-0.1-1.7-0.1-2.7-0.4-3.3-0.6-0.8-0.4-1.4-0.8-2.1-1.4-0.6-0.6-1-1.2-1.3-2.1-0.2-0.6-0.5-1.6-0.6-3.4-0.1-1.9-0.1-2.5-0.1-7.3 0-4.9 0-5.5 0.1-7.4 0.1-1.8 0.4-2.7 0.6-3.4 0.3-0.8 0.7-1.4 1.3-2.1 0.7-0.6 1.3-1 2.1-1.3 0.6-0.3 1.6-0.6 3.3-0.7 1.9-0.1 2.5-0.1 7.2-0.1 4.8 0 5.4 0 7.3 0.1 1.7 0.1 2.7 0.4 3.3 0.7 0.8 0.3 1.4 0.7 2 1.3 0.7 0.7 1.1 1.3 1.4 2.1zm-14 20.1c5.1 0 9.2-4.2 9.2-9.3 0-5.2-4.1-9.4-9.2-9.4-5 0-9.1 4.2-9.1 9.4 0 5.1 4.1 9.3 9.1 9.3zm9.6-16.9c1.2 0 2.1-1 2.1-2.2 0-1.2-0.9-2.1-2.1-2.1-1.2 0-2.2 0.9-2.2 2.1 0 1.2 1 2.2 2.2 2.2zm-9.6 1.5c3.3 0 6 2.7 6 6.1 0 3.3-2.7 6-6 6-3.2 0-5.9-2.7-5.9-6 0-3.4 2.7-6.1 5.9-6.1zm0-26.1c17.1 0 30.9 14.1 30.9 31.5 0 17.4-13.8 31.5-30.9 31.5-17.1 0-30.9-14.1-30.9-31.5 0-17.4 13.8-31.5 30.9-31.5zm17.9 32.2c0-5 0-5.6-0.1-7.5-0.1-2-0.4-3.3-0.8-4.5-0.5-1.2-1.1-2.2-2.1-3.2-1-1-2-1.6-3.1-2.1-1.2-0.4-2.5-0.8-4.4-0.8-1.9-0.1-2.5-0.2-7.4-0.2-4.8 0-5.4 0.1-7.3 0.2-1.9 0-3.2 0.4-4.4 0.8-1.1 0.5-2.1 1.1-3.1 2.1-1 1-1.6 2-2.1 3.2-0.4 1.2-0.7 2.5-0.8 4.5-0.1 1.9-0.1 2.5-0.1 7.5 0 4.9 0 5.5 0.1 7.5 0.1 1.9 0.4 3.2 0.8 4.4 0.5 1.2 1.1 2.2 2.1 3.2 1 1 2 1.7 3.1 2.1 1.2 0.5 2.5 0.8 4.4 0.9 1.9 0.1 2.5 0.1 7.3 0.1 4.9 0 5.5 0 7.4-0.1 1.9-0.1 3.2-0.4 4.4-0.9 1.1-0.4 2.1-1.1 3.1-2.1 1-1 1.6-2 2.1-3.2 0.4-1.2 0.7-2.5 0.8-4.4q0 0 0 0c0.1-2 0.1-2.6 0.1-7.5zm-0.1 7.5q0 0 0 0 0 0 0 0zm80.2-39.7c17 0 30.9 14.1 30.9 31.5 0 17.4-13.9 31.5-30.9 31.5-17.1 0-31-14.1-31-31.5 0-17.4 13.9-31.5 31-31.5zm9 12.1h-5.5c-5.9 0-8.5 2.6-8.5 7.7v5.4h-4.2v6.9h4.2v20.1h7.9v-20.2h5.5l0.6-6.8h-6.1v-3.9c0-1.6 0.3-2.2 1.8-2.2h4.3zm91.5-12.1c17.1 0 30.9 14.1 30.9 31.5 0 17.4-13.8 31.5-30.9 31.5-17.1 0-30.9-14.1-30.9-31.5 0-17.4 13.8-31.5 30.9-31.5zm16.1 25.9c1.4-1.1 2.6-2.3 3.6-3.8q-1.9 0.9-4.1 1.2c1.5-0.9 2.6-2.4 3.1-4.1-1.3 0.9-2.9 1.5-4.5 1.8-1.3-1.4-3.1-2.3-5.2-2.3-4.6 0-8 4.4-6.9 8.9-6-0.3-11.2-3.2-14.7-7.6-1.9 3.3-1 7.6 2.2 9.7-1.2 0-2.3-0.3-3.3-0.9 0 3.4 2.3 6.5 5.8 7.2-1 0.3-2.1 0.4-3.3 0.2 1 2.8 3.6 4.9 6.7 5-3 2.4-6.8 3.5-10.6 3 3.2 2.1 7 3.3 11 3.3 13.2 0 20.7-11.4 20.2-21.6zm84.4-11.1c7.8 0 14.2 6.1 14.7 13.8q0.1 0.5 0.1 1.1c0 8.3-6.6 14.9-14.8 14.9-3 0-5.8-0.9-8.1-2.4l-5.7 1.8 1.9-5.5c-1.8-2.5-2.8-5.5-2.8-8.8q0-0.7 0-1.4c0.8-7.6 7.1-13.5 14.7-13.5zm8.6 21.1q0 0 0 0 0 0 0 0zm0 0q0 0 0 0c0.4-1 0.4-1.9 0.3-2.1-0.1-0.2-0.4-0.3-0.8-0.5-0.5-0.2-2.6-1.3-3-1.4-0.4-0.2-0.6-0.2-0.9 0.2-0.3 0.4-1.2 1.4-1.4 1.7-0.3 0.3-0.5 0.3-0.9 0.1-0.5-0.2-1.9-0.7-3.5-2.1-1.3-1.2-2.1-2.6-2.4-3-0.2-0.5 0-0.7 0.2-0.9 0.2-0.2 0.4-0.5 0.7-0.8q0-0.1 0.1-0.2c0.1-0.2 0.2-0.3 0.3-0.5 0.1-0.3 0.1-0.6-0.1-0.8-0.1-0.2-0.9-2.4-1.3-3.2-0.3-0.9-0.7-0.7-1-0.7-0.2 0-0.5-0.1-0.8-0.1-0.3 0-0.7 0.1-1.1 0.6-0.4 0.4-1.5 1.5-1.5 3.6q0 0.8 0.2 1.5c0.4 1.5 1.4 2.8 1.5 3 0.2 0.3 3 4.8 7.4 6.6 4.4 1.7 4.4 1.1 5.1 1 0.8 0 2.6-1 2.9-2zm-9-35.9c17.1 0 30.9 14.1 30.9 31.5 0 17.4-13.8 31.5-30.9 31.5-17.1 0-30.9-14.1-30.9-31.5 0-17.4 13.8-31.5 30.9-31.5zm0.4 47.5c9.7 0 17.6-8 17.6-17.8q0-0.2 0-0.4c-0.3-9.6-8-17.3-17.6-17.3-9.4 0-17.1 7.5-17.5 16.9q0 0.4 0 0.8c0 3.4 0.9 6.5 2.5 9.2l-3.2 9.5 9.7-3.1c2.6 1.4 5.5 2.2 8.5 2.2z"/></svg>