<svg version="1.2" xmlns="http://www.w3.org/2000/svg" viewBox="0 0 116 123" width="116" height="123"><style>.a{fill:#e1953b}</style><path fill-rule="evenodd" class="a" d="m71 67.4q-0.1 0.1-0.2 0.1 0.1 0 0.1-0.1 0 0 0.1 0 0 0 0 0zm40.2-1.2q-0.6-0.3-1.2-0.6 0 0 0 0 0 0 0 0c-0.2-0.4-0.5-0.5-0.8-0.7-3.1-1.3-6.1-2.7-9.1-4q-4.3-1.9-8.7-3.8 0 0 0 0c-0.4-0.6-1.1-0.8-1.6-0.4-0.6 0.4-0.1 1 0.2 1.5 0.1 0.2 0.2 0.6 0.3 0.8 0.6 0.7 0.6 1.3 0 1.9-0.7 0.7-1.4 0.7-2.3 0.4-1.7-0.6-3.4-1.2-5.2-1.6-1.5-0.4-2 0.2-1.4 1.6q0.4 1 0.4 2.1c-0.2 2.9 0.1 5.8-0.5 8.8-0.4 2.1-0.7 4.4-0.9 6.7-0.2 1.5-0.2 3.1-0.6 4.6-0.6 3-1.3 6-1.1 9.1 0.1 0.5-0.5 0.8-0.7 1.2q0 0 0 0c-1.1 0.1-2.4 0.3-2.9-1.2q-0.4-1.5-0.7-3.1c-0.9-4.8-1.7-9.7-2.7-14.5-0.6-2.9-0.6-2.9-3.3-1.5-1.6 0.8-2.5 0.5-3.1-1.4-1.4-5.2-2.9-10.4-4.4-15.6-0.1-0.4 0-0.8-0.4-0.9-0.4-0.1-0.8 0.1-0.9 0.5-0.4 1.3-1.3 2.4-1.4 3.9-1.8 4.1-3.1 8.4-4.6 12.7q0 0 0 0 0 0 0 0c-1 0.8-0.9 2.1-1.2 3.2-1 3.6-1.8 7.2-2.3 10.9-0.5 3.9-0.8 7.7-1.1 11.5-0.3 2.4 0.7 4.7 0.6 7.1 0 0.6 0.4 1.1 0.9 1.1 1.7-0.1 3.3 1.1 5 0.7 7.5 2 14.2 5.3 19.4 11.3q0.6 0.6 1 1.2c0.8 1.3 0.3 2.6-1.2 3-0.7 0.2-1.4 0.2-2.2 0.2q-34.6 0.1-69.3 0.1-0.5 0-1 0c-2-0.2-2.8-1.8-1.6-3.5 1.2-1.7 2.7-3.2 4.4-4.6 0.6 0 1.1-0.5 1.6-0.8 2.1-1.6 4.4-2.9 6.8-4 3.5-1.7 7.2-2.8 11-3.5 1.1-0.2 2.3-0.5 3.4-0.8 1.7-0.4 0.8-2.1 1.1-3.2q0-0.1 0-0.3 0.9-3.2 1.2-6.6 0 0 0 0 0 0 0 0c1-0.7 0.5-1.9 0.8-2.9 1.4-4.2 2.2-8.6 3.7-12.8 1.2-3.4 2.3-6.7 3.7-10 1-2.3 2.3-4.3 2.9-6.7 0.2-0.3 0.4-0.7 0.3-1.2 1.5-1.6 2.2-3.6 3.3-5.5 0.9-1.6 2.2-3.1 2.6-5q0 0 0 0c0.7-0.2 0.9-0.8 0.6-1.3-0.2-0.5-0.8-0.2-1.2 0-0.7 0.4-1.5 0.3-2.3 0.5q-7.6 2.3-15.4 4.4c-1.4 0.4-2.5-0.2-2.8-1.4-0.1-0.5 0-1.1 0-1.7-0.1-1.7-0.3-2-1.9-1.4-4.4 1.6-8.7 3.3-13.1 4.8-1.6 0.6-3.1 1.4-4.8 1.7-0.8 0.1-1.8 0.1-2.1-0.9-0.3-0.9-0.1-1.6 0.7-2.3 1.2-1.1 2.6-2 3.6-3.4q2.1-1.8 4.3-3.7 4.2-2.9 7.7-6.5c3.5-3.3 7.5-5.5 12-6.8 4-1.2 8.2-1.7 12.4-1 0.4 0 0.9 0.2 1.2-0.2 0.4-0.6-0.3-0.9-0.4-1.3q-3.4-3.9-6.7-7.8c-0.6-0.8-1.3-1.6-0.8-2.8 0.5-1.1 1.5-1.3 2.5-1.3 0.4 0.1 0.9 0.1 1-0.2 0.2-0.6-0.4-0.7-0.6-0.9-5.1-4.3-10.3-8.6-15.4-12.8-0.7-0.7-1.6-1.2-1.7-2.3-0.4-2 1.3-3.5 3.3-2.9q6.2 1.9 12.4 3.9c3.6 1.1 7.2 2.3 10.8 3.4 4.8 1.5 8.3 4.5 10.9 8.7 1.1 1.9 2.3 3.7 3.4 5.5 0.9 1.4 1 1.4 2.1 0.3 3-3.1 6.6-4.7 11-4.5q0 0 0 0 0 0 0 0c0.5 0.5 1.2 0.6 2 0.6 6.9-0.3 13.7 0.9 20.6 1 2 0.1 4.2 0.1 6.3 0.6 1.1 0.2 1.7 1 1.2 1.9-0.3 0.7-1.1 0.9-1.7 1.1-2.7 1-5.4 1.9-8.1 2.7-2.3 0.8-4.7 1.4-7 2.1q-2.4 0.7-4.7 1.5c-0.4 0.2-0.8 0.3-0.9 0.9 0 0.5 0.4 0.6 0.8 0.8 0.7 0.3 1.4 0.7 2 1.1 1.3 0.8 1.3 1.8 0.1 2.7-1.3 1-2.7 1.8-4.1 2.6-0.5 0.3-0.9 0.7-0.3 1 1.8 0.9 3.4 2.1 5.3 2.7 1.8 1.4 3.5 3 5.2 4.6q0 0 0 0 0 0 0 0c-0.1 0.5 0.3 0.7 0.5 0.9 4.6 4.2 9.2 8.4 13.8 12.5 0.8 0.7 1.3 1.7 2.4 1.9 0.9 1.6 2.5 2.4 3.7 3.8q0 0 0 0c-0.1 2.2-0.9 2.7-2.8 1.9-0.4-0.1-0.8-0.2-1.2-0.1zm-42.1-40.7q1.2-1.3 2.5-2.5c-1.3 0.4-2 1.3-2.5 2.5zm-3.8 6.6c1.3 1.4 1.8 3.2 1.6 5.2-0.1 1.4 0.1 1.7 1.6 1.4 1.3-0.3 2.7-0.4 4.1-0.5 1.8-0.2 3.6-0.3 5.3-0.9 1.9-0.8 3.6-2.1 5.4-3.2 0.4-0.2 0.6-0.6 0.6-1 0-0.5-0.5-0.5-0.8-0.5q-0.2-0.2-0.4 0 0 0-0.1 0.1 0 0 0 0c-1-0.5-2-0.9-3-1.4-0.9-0.4-1.3-1.2-1.3-2.1 0.1-0.9 0.6-1.5 1.4-1.8q0.9-0.3 1.8-0.7c0.6-1 1.8-0.9 2.7-1.1 2.8-0.9 5.6-1.8 8.6-2.8-3.6-0.5-7-0.9-10.5-0.7-0.9 0-1.8 0.1-2.7-0.1-4.3-0.8-7.5 0.8-10.3 4-1.1 1.4-2 3.2-3.7 4.1h0.1q0 0-0.1 0 0 0 0 0 0.1-0.3 0.1-0.6c-1.2 0.7-1.6 1.4-0.4 2.6zm-2.4-6.6q0 0.8 0 1.5c1.2-0.5 0.7-1 0-1.5zm-10.2 7.3c0.5 0.6 1.1 0.8 1.5-0.1 1.1-2 2.7-3.2 4.9-3.4 1.5-0.1 2.4-0.9 3.3-2 0.5-0.7 0.5-1.2 0.1-2-1.8-2.7-3.5-5.6-5.3-8.3-1.6-2.3-3.7-4-6.2-5.1-2.2-0.9-4.5-1.5-6.7-2.3q-0.1 0-0.1 0c0.7-0.1 1.3 0.5 2 0.4-0.5-1-1.5-0.6-2.2-0.7q-0.2 0-0.3 0c-0.4-0.8-1.2-0.6-1.9-0.6q0 0.1 0 0.2-0.1 0-0.3 0c-1.1-0.4-2.3-0.9-3.5-1.2-0.6-0.1-1.7-0.7-2.1 0-0.4 0.7 0.9 0.9 1.2 1.5q0 0.1 0.1 0.2 2.3 2 4.6 4 3.7 3.1 7.4 6.1c0.7 0.7 1 1.4 0.7 2.4-0.2 1-1 1.2-1.9 1.3-0.6 0.1-1.3 0.1-2 0-0.9 0-1.3 0.3-0.6 1.1q3.6 4.3 7.3 8.5zm1.5 8.6c-1.5 0-3 1.4-3 2.9-0.1 1.5 1.3 3.2 2.8 3.2 1.8 0.1 3.1-1.1 3.1-3.1 0.1-1.4-1.3-2.9-2.9-3zm-2.8-3.4c0.3-0.2 0.8 0 0.8-0.6-8.6-1.4-17.1-2-24.9 3-0.5-0.1-0.9 0.1-1.3 0.4q-4.5 3.8-9.1 7.6c-0.3 0.3-0.9 0.6-0.6 1.1 0.3 0.4 1 0.3 1.5 0.1 2.5-1 5-2 7.5-2.9 1.4-0.5 2.9-1.4 4.5-0.1q0 0 0 0c0.4 1 0.2 2 0.2 3.1 0 0.9 0.4 1.2 1.2 0.9 4.9-1.3 9.8-2.7 14.8-4 1.1-0.3 1.4-0.8 1.3-1.9-0.2-3.2 1.5-5.3 4.1-6.7zm-21.6 8.6q0 0 0 0 0 0 0 0zm9.1 35.1c1.2 0 2.4 0 4 0 1.2-0.2 2.9 0.5 4.1-0.3 1.2-0.7 0.8-2.5 1.3-3.9 0.1-0.2 0.2-0.5 0.2-0.8 0.2-0.9 0-1.3-1-1.3-1 0.1-2 0-3.1 0-5 0-5 0-6.3 4.9q0 0.1 0 0.2c-0.4 0.8-0.1 1.2 0.8 1.2zm-2.7 9.9c1.4 0 2.7 0 4.1 0q1.3 0 2.6 0c3 0 2.9 0 3.3-2.8q0.1-0.9 0.3-1.7c0.2-1-0.1-1.5-1.3-1.5-2.5 0.1-5.1 0.1-7.7 0-0.8 0-1.2 0.3-1.3 1.1-0.3 1.2-0.7 2.4-1 3.6-0.3 0.9-0.1 1.3 1 1.3zm-2.5 13.4c1.8 0 3.6 0 5.4 0q0 0 0 0.1c1.9 0 3.7-0.1 5.6 0 0.9 0 1.3-0.2 1.2-1.2-0.1-2.4-0.4-4.8-0.3-7.1 0-0.8-0.4-1.2-1.2-1.2q-4.7 0-9.4 0.1c-0.6 0-1.1 0.1-1.2 0.7q-0.6 3.7-1.3 7.4c-0.1 0.9 0.2 1.3 1.2 1.2zm11.1 4c-6.8-0.7-13.7-0.4-20.4 1.3-5.7 1.4-11.2 3.6-15.9 7.2-0.4 0.3-1.2 0.5-0.9 1.2 0.2 0.6 0.9 0.3 1.4 0.3q14.5 0 28.9 0 0 0 0 0c9.4 0 18.8 0 28.2 0 0.9 0 2.2 0.5 2.5-0.5 0.2-0.8-1.1-1.3-1.9-1.8-6.6-4.5-14-6.8-21.9-7.7zm5.9-44.1c-1.6 0.1-3.2 0-4.9 0.1-0.8 0-1.7 0-1.8 1.2q-0.3 0.6-0.6 1.2c-1 0.8-1.1 1.9-1.6 2.9-0.6 1.1-0.1 1.4 0.9 1.4 2 0 4 0 6 0.1 1 0 1.5-0.5 1.8-1.4 0.4-1.3 0.9-2.6 1.4-3.9 0.3-1 0-1.6-1.2-1.6zm6.3-14.1c-1.3 0.6-2.6 0.5-4 0.5-0.5 0-0.9 0.1-1.2 0.6-1.2 2.3-2.9 4.3-3.8 6.8-0.3 0.4-0.6 0.7-0.8 1.1-0.8 1.4-0.6 1.7 1 1.7q1.9 0 3.8 0c0.7 0 1.5-0.1 1.8-0.8q1.9-4.5 3.8-9.1c0.2-0.4 0.1-1.1-0.6-0.8zm5.2-12c0.2 0 0.5-0.1 0.6-0.2 1-1.1 1-2.4 0.6-3.6-0.5-1.4-1.7-1.9-3.2-1.8-2 0.1-3.1 0.9-3.5 2.7-0.3 1.4 0.6 2.9 2.1 3.6 1.7 0.8 2.4 0.7 3.4-0.7zm2 10.7c1.7 0 3-1.2 3.1-2.9 0-1.8-1.3-3.1-3-3.1-1.8 0-3 1.2-3 3 0 1.8 1.1 3 2.9 3zm14.1 14.5q-0.7-8.7-6.1-15.4c-0.6-0.7-1-0.8-1.4 0.1-0.4 1-1 1.8-1.7 2.6-1.3 0.6-2.6 1.2-4 1.8-0.4 0.2-1.2-0.2-1.3 0.7 0 0.7-0.3 1.6 0.7 2.1 0 0.8-0.4 1.7 0.6 2.2 0 0.7-0.1 1.4 0.1 2.1 0.8 2.5 1.6 5 2.3 7.5 0.4 1.6 1.2 2.1 2.5 1.1 1-0.9 2.1-1.2 3.4-1q0-0.1 0-0.1 0 0 0.1 0c0 0-0.1 0.1-0.1 0.1 0.2 0.4 0.6 0.9 0.6 1.4-0.2 1.7 0.6 3.2 0.8 4.8 0.1 1.3 0.3 2.6 0.7 3.9 0.2 0.7 0 2.3 1.2 2.1 0.9-0.2 0.3-1.6 0.4-2.4q-0.1 0.1-0.3 0.1 0 0 0-0.1 0.2 0.1 0.3 0c0.1-0.4 0.1-0.9 0.2-1.4 0.6-4 1.3-8.1 1-12.2zm24.4-6.4c-1.7-1.3-2.7-3-4.5-3.9-3.1-2.8-6.4-5.5-9.3-8.6-5-5.1-11-4.3-17.3-3.1 0.4 0.5 0.7 0.9 1 1.2 2.6 2.9 5.3 5.9 6.6 9.6 1.1 3 3.5 3 6 3.8-0.5-1.3-1-2.3-1.3-3.4-0.4-1.6 0.7-2.7 2.4-2.4 0.7 0.2 1.3 0.5 2 0.8 0.1 0.1 0.2 0.4 0.4 0.4 3.5 1.7 7 3.3 10.6 4.8 0.9 0.4 1.8 1.3 3.4 0.8zm-1.5-0.4q0 0 0 0 0 0 0 0 0 0 0 0zm-36.1 0.9q0 0 0 0zm5.9 9.3q0 0 0 0 0 0 0 0 0 0 0 0zm-6.5-11.5q0 0 0 0 0 0 0 0z"/></svg>