<svg version="1.2" xmlns="http://www.w3.org/2000/svg" viewBox="0 0 237 87" width="237" height="87"><style>.a{fill:#558fa1}</style><path fill-rule="evenodd" class="a" d="m117.7 63.8c0.1 0.4 0.1 0.8-0.4 1-4.6 2.2-9.3 3.6-14.4 2.3-5-1.3-7.2-4.3-7.2-9.4-0.1-5.1 0-10.1 0-15.1 0-5.2-0.1-10.4 0-15.6 0-0.9-0.2-1.3-1.2-1.2-1.3 0.1-2.7 0-4.1 0-0.8 0-1.1-0.2-1.1-1.1q0.1-2.1 0-4.2c0-0.8 0.3-0.9 1-0.9 1.4 0 2.9 0 4.3 0 0.9 0.1 1.1-0.3 1.1-1.2-0.1-4.4 0-8.9-0.1-13.3 0-1.1 0.4-1.5 1.4-1.4q2.7 0.1 5.3 0c1-0.1 1.4 0.2 1.3 1.3 0 4.3 0.1 8.6 0 12.9-0.1 1.4 0.4 1.8 1.8 1.7 2.5-0.1 5.1 0 7.7 0 0.9-0.1 1.2 0.2 1.1 1.1q-0.1 1.9 0 3.8c0.1 1.1-0.3 1.3-1.3 1.3-2.6 0-5.2 0.1-7.7 0-1.4-0.1-1.6 0.4-1.6 1.6 0 8.9 0.1 17.7 0 26.6-0.1 5.5 3.4 6.8 7.6 6q2.1-0.3 4-1.3c0.6-0.3 0.9-0.2 1.1 0.4 0.4 1.6 0.9 3.2 1.4 4.7zm36.4-43.4q-0.1 2.6 0 5.1c0 0.9-0.3 1.1-1.1 1.1-4 0.4-7.8 1.5-11 4.1-2.2 1.8-3.7 4-4.8 6.5-0.2 0.6-0.2 1.2-0.2 1.7 0 8.9 0 17.8 0 26.7 0 1.1-0.2 1.5-1.3 1.4-1.8-0.1-3.6-0.1-5.4 0-1 0-1.3-0.2-1.3-1.2 0.1-4.9 0.1-9.7 0.1-14.6 0-10.1 0-20.1-0.1-30.2 0-1.1 0.3-1.6 1.4-1.5 1.7 0.1 3.3 0.1 4.9 0 0.9 0 1.2 0.3 1.2 1.2-0.1 3.1-0.1 6.1-0.1 9.2 1.9-2.8 3.9-5.3 6.6-7.3 2.9-2.2 6.2-3.5 9.9-3.4 0.9 0 1.2 0.2 1.2 1.2zm-128.1 5c0 0.9-0.2 1.1-1.2 1.2-4 0.4-7.7 1.6-10.9 4.1-2.2 1.7-3.7 3.9-4.8 6.4-0.2 0.6-0.2 1.2-0.2 1.8 0 8.9-0.1 17.7 0 26.6 0 1.3-0.4 1.6-1.6 1.5-1.7-0.1-3.5-0.1-5.3 0-0.8 0-1.1-0.2-1.1-1.1q0.1-22.6 0-45.3c0-0.8 0.2-1.1 1-1.1q2.7 0.1 5.5 0c0.8 0 0.9 0.3 0.9 1.1 0 2.6 0 5.2 0 7.7q0 0.8 0 1.6 0.2 0 0.4 0.1c2-3.8 4.8-6.8 8.5-8.9 2.4-1.3 4.9-2 7.7-1.9 0.8 0.1 1.1 0.3 1.1 1.1q-0.1 2.5 0 5.1zm147.7 40.1c0 1.3-0.3 1.6-1.5 1.5-1.6-0.1-3.1 0-4.7 0-1.7 0-1.7 0-1.7-1.8q0-13.7 0-27.5c0-5.5 0-11.1-0.1-16.6 0-1.2 0.3-1.6 1.5-1.6q2.6 0.2 5.2 0c1.1 0 1.3 0.4 1.3 1.4 0 7.5 0 14.9 0 22.4 0 7.4 0 14.8 0 22.2zm-8-56q0.1-3.9 0-7.9c0-0.6 0.2-0.9 1-0.9q3.1 0 6.2 0c0.7 0 0.8 0.3 0.8 0.9 0 1.3 0 2.7 0 4.1 0 1.3 0 2.7 0 4 0 0.8-0.2 1-0.9 1q-3-0.1-6 0c-0.8 0-1.1-0.4-1.1-1.2zm70.9 38.6c-1.1 7.5-4.6 13.6-11.3 17.4-7.2 4.1-16.7 2.8-22.8-2.8-1.4-1.4-2.6-3-4.1-4.5q0 0.9 0 1.7c0 8.4 0 16.7 0 25.1 0 1-0.2 1.4-1.3 1.4-1.8-0.1-3.6-0.1-5.5 0-0.8 0-1.2-0.2-1.2-1.1q0.1-32.3 0-64.6c0-1 0.4-1.2 1.3-1.2q2.2 0.1 4.5 0c1-0.1 1.3 0.3 1.3 1.3-0.1 2 0 4 0 6 0 0.4-0.1 0.8 0.3 1.3 2-3.1 4.5-5.4 7.7-7 7.7-3.8 15.2-3.2 21.9 2.1 8 6.3 10.7 14.9 9.2 24.9zm-10.5-14.7c-3.2-4.9-7.7-7.8-13.6-7.7-4 0-7.4 1.8-10.4 4.5-2.5 2.3-4.1 5-3.7 8.6 0.1 1.3 0 2.7 0 4.1 0 1.5 0.1 3 0 4.5-0.3 2.2 0.5 4 1.7 5.8 1.5 2.1 3.2 3.9 5.4 5.3 5.5 3.7 12.7 3.2 17.5-1.3 6.5-6 7.8-16.3 3.1-23.8zm-144.9 11.5c-0.1 1-0.6 1.1-1.3 1.1q-9.4 0-18.7 0-8.8 0-17.7 0c-1.7 0-1.7 0-1.5 1.7 1.2 6.5 4.7 11.1 10.9 13.3 6.1 2.3 14.8-0.1 18-6.4 0.3-0.6 0.7-0.5 1.3-0.4 1.6 0.5 3.3 1 4.9 1.4 0.9 0.2 0.9 0.6 0.5 1.3-1.7 3.1-4.1 5.5-7.1 7.3-10.6 6.6-26.8 4.7-34-8.6-5.2-9.5-3.9-21.5 3.4-29.3 5.5-5.9 12.5-8.2 20.5-7.4 13.1 1.5 21.6 12.9 20.8 26zm-7.7-6.4c-2-10.3-10.9-15-19-13.5-6.6 1.3-12 7.1-12.7 13.6-0.2 1.1 0.1 1.5 1.3 1.4 4.8 0 9.6 0 14.5 0 4.9 0 9.8-0.1 14.7 0 1.3 0.1 1.5-0.4 1.2-1.5z"/></svg>